<svg width="126" height="23" viewBox="0 0 126 23" fill="none" xmlns="http://www.w3.org/2000/svg">
<path d="M55.3154 5.24121C55.8408 5.24122 56.4443 5.30581 57.1259 5.43359C57.8147 5.55431 58.479 5.80607 59.1181 6.18945C59.7644 6.57298 60.3013 7.15261 60.7275 7.92676C61.1534 8.70085 61.3661 9.73767 61.3661 11.0371V21.8184H58.8525V19.6025H58.7245C58.5541 19.9576 58.2697 20.3374 57.872 20.7422C57.4744 21.1469 56.9454 21.4913 56.2851 21.7754C55.6246 22.0595 54.8178 22.2021 53.8661 22.2021C52.8293 22.2021 51.888 22.0068 51.0429 21.6162C50.1978 21.2185 49.5264 20.6461 49.0292 19.9004C48.5323 19.1477 48.2842 18.2388 48.2841 17.1738C48.2841 16.2363 48.4685 15.4759 48.8378 14.8936C49.2071 14.3042 49.7006 13.8426 50.3183 13.5088C50.9362 13.175 51.6184 12.926 52.3642 12.7627C53.117 12.5922 53.8738 12.4578 54.6337 12.3584C55.6279 12.2306 56.4338 12.1342 57.0517 12.0703C57.6765 11.9993 58.1309 11.882 58.415 11.7188C58.7062 11.5554 58.8525 11.271 58.8525 10.8662V10.7812C58.8524 9.7302 58.5644 8.91341 57.9892 8.33105C57.421 7.7487 56.558 7.45801 55.4003 7.45801C54.2001 7.45802 53.2589 7.72054 52.5771 8.24609C51.8954 8.77156 51.4156 9.33225 51.1386 9.92871L48.7529 9.07715C49.1789 8.08301 49.7469 7.30884 50.457 6.75488C51.1742 6.19388 51.9557 5.8032 52.8007 5.58301C53.653 5.35574 54.4915 5.24121 55.3154 5.24121ZM107.629 5.24121C108.481 5.24122 109.322 5.38395 110.153 5.66797C110.984 5.95206 111.741 6.41353 112.423 7.05273C113.105 7.68484 113.648 8.52335 114.053 9.56738C114.457 10.6114 114.66 11.897 114.66 13.4238V14.4893H102.778C102.814 15.5777 103.024 16.5119 103.41 17.291C103.843 18.1431 104.444 18.7928 105.211 19.2402C105.978 19.6805 106.869 19.9004 107.885 19.9004C108.545 19.9004 109.141 19.8085 109.674 19.624C110.214 19.4323 110.68 19.1479 111.07 18.7715C111.461 18.388 111.762 17.9118 111.976 17.3438L114.404 18.0254C114.149 18.8493 113.719 19.5742 113.115 20.1992C112.511 20.817 111.766 21.2995 110.878 21.6475C109.99 21.9883 108.993 22.1592 107.885 22.1592C106.308 22.1592 104.948 21.8111 103.805 21.1152C102.668 20.4121 101.791 19.4319 101.173 18.1748C100.562 16.9107 100.257 15.4406 100.257 13.7646C100.257 12.0887 100.562 10.6113 101.173 9.33301C101.791 8.0475 102.65 7.04545 103.751 6.32812C104.859 5.60372 106.152 5.24121 107.629 5.24121ZM122.106 5.45508H125.601V7.58496H122.106V17.1309C122.106 17.841 122.21 18.3734 122.416 18.7285C122.629 19.0765 122.899 19.3109 123.226 19.4316C123.559 19.5453 123.911 19.6025 124.28 19.6025C124.557 19.6025 124.784 19.588 124.962 19.5596C125.139 19.5241 125.281 19.4959 125.388 19.4746L125.899 21.7334C125.729 21.7973 125.491 21.8609 125.185 21.9248C124.88 21.9958 124.493 22.0312 124.024 22.0312C123.314 22.0312 122.618 21.8786 121.936 21.5732C121.262 21.2678 120.7 20.8027 120.253 20.1777C119.813 19.5527 119.593 18.7642 119.593 17.8125V7.58496H117.121V5.45508H119.593V1.53418H122.106V5.45508ZM38.0136 18.3662H38.2695L44.747 0H47.5165L39.5058 21.8184H36.7782L28.7665 0H31.537L38.0136 18.3662ZM71.7509 12.1455L75.6708 5.45508H78.5693L73.2851 13.6367L78.5693 21.8184H75.6708L71.7509 15.4688L67.83 21.8184H64.9325L70.1318 13.6367L64.9325 5.45508H67.83L71.7509 12.1455ZM89.8691 0C91.5807 0 92.9807 0.30886 94.0673 0.926758C95.161 1.53754 95.9705 2.36521 96.496 3.40918C97.0216 4.45314 97.2841 5.61791 97.2841 6.90332C97.2841 8.1887 97.0215 9.35715 96.496 10.4082C95.9776 11.4593 95.1745 12.2979 94.0878 12.9229C93.0012 13.5406 91.6093 13.8496 89.912 13.8496H85.1396V21.8184H82.497V0H89.8691ZM14.2929 1.11133C14.659 0.745248 15.238 0.722629 15.6308 1.04297L15.707 1.11133L19.707 5.11133L19.7753 5.1875C20.0956 5.58026 20.073 6.15928 19.707 6.52539C19.3409 6.89149 18.7618 6.91406 18.3691 6.59375L18.2929 6.52539L16.9999 5.23242L13.914 8.31836L16.207 10.6113L16.2753 10.6875C16.5956 11.0803 16.573 11.6593 16.207 12.0254C15.8409 12.3915 15.2618 12.4141 14.8691 12.0938L14.7929 12.0254L14.4999 11.7324L8.70695 17.5254C8.51944 17.7129 8.26511 17.8183 7.99992 17.8184H4.41399L1.70696 20.5254C1.31644 20.9159 0.68342 20.9159 0.292893 20.5254C-0.097631 20.1349 -0.097631 19.5019 0.292893 19.1113L2.99992 16.4043V12.8184C2.99992 12.5531 3.10536 12.2989 3.29289 12.1113L9.08586 6.31836L8.79289 6.02539L8.72453 5.94922C8.40418 5.55645 8.42678 4.97744 8.79289 4.61133C9.15901 4.24525 9.73802 4.22263 10.1308 4.54297L10.207 4.61133L12.4999 6.9043L15.5859 3.81836L14.2929 2.52539L14.2245 2.44922C13.9042 2.05645 13.9268 1.47744 14.2929 1.11133ZM58.8525 13.5938C58.746 13.7215 58.5113 13.8388 58.1493 13.9453C57.7942 14.0447 57.3818 14.1338 56.913 14.2119C56.4515 14.2829 56.0007 14.3465 55.5605 14.4033C55.1274 14.453 54.7756 14.4957 54.5058 14.5312C53.8524 14.6165 53.241 14.7555 52.6728 14.9473C52.112 15.1319 51.6574 15.4119 51.3095 15.7881C50.9686 16.1574 50.7978 16.6626 50.7978 17.3018C50.7979 18.1751 51.1213 18.8358 51.7675 19.2832C52.4209 19.7235 53.2486 19.9434 54.2499 19.9434C55.244 19.9433 56.0819 19.7479 56.7636 19.3574C57.4525 18.9668 57.9712 18.4626 58.3193 17.8447C58.6743 17.227 58.8524 16.5772 58.8525 15.8955V13.5938ZM9.91399 8.31836L10.707 9.11133L10.7753 9.1875C11.0956 9.58026 11.073 10.1593 10.707 10.5254C10.3409 10.8915 9.76184 10.9141 9.36906 10.5938L9.29289 10.5254L8.49992 9.73242L6.91399 11.3184L7.70696 12.1113L7.77531 12.1875C8.09562 12.5803 8.07302 13.1593 7.70696 13.5254C7.34085 13.8915 6.76184 13.9141 6.36906 13.5938L6.29289 13.5254L5.49992 12.7324L4.99992 13.2324V15.8184H7.58586L13.0859 10.3184L10.4999 7.73242L9.91399 8.31836ZM107.629 7.5C106.627 7.5 105.761 7.74893 105.029 8.24609C104.305 8.73609 103.747 9.37489 103.356 10.1631C103.022 10.8386 102.832 11.5564 102.784 12.3154H112.103C112.103 11.3922 111.918 10.5682 111.549 9.84375C111.187 9.11957 110.669 8.54786 109.994 8.12891C109.326 7.70988 108.538 7.50001 107.629 7.5ZM85.1396 11.5059H89.8271C90.9989 11.5058 91.9401 11.3032 92.6503 10.8984C93.3604 10.4936 93.8757 9.94665 94.1952 9.25781C94.5218 8.56187 94.6845 7.77677 94.6845 6.90332C94.6845 6.02985 94.5219 5.24842 94.1952 4.55957C93.8756 3.8707 93.3568 3.33104 92.6396 2.94043C91.9222 2.5427 90.9702 2.34375 89.7841 2.34375H85.1396V11.5059Z" fill="#00B8A9"/>
</svg>
